{
      "notes": [
        {
          "name": "D4",
          "midi": 62,
          "time": "0",
          "velocity": 0.6299212598425197,
          "duration": "0.3125"
        },
        {
          "name": "D4",
          "midi": 62,
          "time": "0.3125",
          "velocity": 0.6299212598425197,
          "duration": "0.3125"
        },
        {
          "name": "D4",
          "midi": 62,
          "time": "0.625",
          "velocity": 0.6299212598425197,
          "duration": "0.3125"
        },
        {
          "name": "D4",
          "midi": 62,
          "time": "0.9375",
          "velocity": 0.6299212598425197,
          "duration": "0.3125"
        },
        {
          "name": "C4",
          "midi": 60,
          "time": "1.25",
          "velocity": 0.6299212598425197,
          "duration": "1.375"
        },
        {
          "name": "D4",
          "midi": 62,
          "time": "2.625",
          "velocity": 0.6299212598425197,
          "duration": "1.375"
        },
        {
          "name": "E4",
          "midi": 64,
          "time": "4",
          "velocity": 0.6299212598425197,
          "duration": "1.375"
        },
        {
          "name": "F4",
          "midi": 65,
          "time": "6.5",
          "velocity": 0.6299212598425197,
          "duration": "0.5"
        },
        {
          "name": "E4",
          "midi": 64,
          "time": "7",
          "velocity": 0.6299212598425197,
          "duration": "0.5"
        },
        {
          "name": "F4",
          "midi": 65,
          "time": "7.5",
          "velocity": 0.6299212598425197,
          "duration": "0.5"
        },
        {
          "name": "D4",
          "midi": 62,
          "time": "9.125",
          "velocity": 0.6299212598425197,
          "duration": "0.5"
        },
        {
          "name": "E4",
          "midi": 64,
          "time": "9.625",
          "velocity": 0.6299212598425197,
          "duration": "0.5"
        },
        {
          "name": "F4",
          "midi": 65,
          "time": "10.125",
          "velocity": 0.6299212598425197,
          "duration": "0.5"
        },
        {
          "name": "C4",
          "midi": 60,
          "time": "11.625",
          "velocity": 0.6299212598425197,
          "duration": "0.5"
        },
        {
          "name": "F4",
          "midi": 65,
          "time": "12.125",
          "velocity": 0.6299212598425197,
          "duration": "0.5"
        },
        {
          "name": "C4",
          "midi": 60,
          "time": "12.625",
          "velocity": 0.6299212598425197,
          "duration": 0.5
        },
        {
          "name": "D4",
          "midi": 62,
          "time": 14.25,
          "velocity": 0.6299212598425197,
          "duration": 0.5
        },
        {
          "name": "E4",
          "midi": 64,
          "time": 14.75,
          "velocity": 0.6299212598425197,
          "duration": 0.5
        },
        {
          "name": "F4",
          "midi": 65,
          "time": 15.25,
          "velocity": 0.6299212598425197,
          "duration": 0.5
        },
        {
          "name": "F4",
          "midi": 65,
          "time": 16.876041666666666,
          "velocity": 0.6299212598425197,
          "duration": 0.5
        },
        {
          "name": "E4",
          "midi": 64,
          "time": 17.376041666666666,
          "velocity": 0.6299212598425197,
          "duration": 0.5
        },
        {
          "name": "F4",
          "midi": 65,
          "time": 17.876041666666666,
          "velocity": 0.6299212598425197,
          "duration": 0.5
        },
        {
          "name": "D4",
          "midi": 62,
          "time": 19.501041666666666,
          "velocity": 0.6299212598425197,
          "duration": 0.5
        },
        {
          "name": "E4",
          "midi": 64,
          "time": 20.001041666666666,
          "velocity": 0.6299212598425197,
          "duration": 0.5
        },
        {
          "name": "F4",
          "midi": 65,
          "time": 20.501041666666666,
          "velocity": 0.6299212598425197,
          "duration": 0.5
        },
        {
          "name": "C4",
          "midi": 60,
          "time": 22.001041666666666,
          "velocity": 0.6299212598425197,
          "duration": 0.5
        },
        {
          "name": "F4",
          "midi": 65,
          "time": 22.501041666666666,
          "velocity": 0.6299212598425197,
          "duration": 0.5
        },
        {
          "name": "C4",
          "midi": 60,
          "time": 23.001041666666666,
          "velocity": 0.6299212598425197,
          "duration": 0.5
        },
        {
          "name": "D4",
          "midi": 62,
          "time": 24.626041666666666,
          "velocity": 0.6299212598425197,
          "duration": 0.5
        },
        {
          "name": "E4",
          "midi": 64,
          "time": 25.126041666666666,
          "velocity": 0.6299212598425197,
          "duration": 0.5
        },
        {
          "name": "F4",
          "midi": 65,
          "time": 25.626041666666666,
          "velocity": 0.6299212598425197,
          "duration": 0.5
        },
        {
          "name": "E4",
          "midi": 64,
          "time": 27.25,
          "velocity": 0.6299212598425197,
          "duration": 0.314583333333335
        },
        {
          "name": "E4",
          "midi": 64,
          "time": 27.875,
          "velocity": 0.6299212598425197,
          "duration": 0.3125
        },
        {
          "name": "E4",
          "midi": 64,
          "time": 28.5,
          "velocity": 0.6299212598425197,
          "duration": 0.3125
        },
        {
          "name": "E4",
          "midi": 64,
          "time": 29.125,
          "velocity": 0.6299212598425197,
          "duration": 0.31666666666666643
        },
        {
          "name": "D4",
          "midi": 62,
          "time": 29.8125,
          "velocity": 0.6299212598425197,
          "duration": 0.314583333333335
        },
        {
          "name": "D4",
          "midi": 62,
          "time": 30.465625000000003,
          "velocity": 0.6299212598425197,
          "duration": 0.3125
        },
        {
          "name": "D4",
          "midi": 62,
          "time": 31.09166666666667,
          "velocity": 0.6299212598425197,
          "duration": 0.3125
        },
        {
          "name": "D4",
          "midi": 62,
          "time": 31.708333333333336,
          "velocity": 0.6299212598425197,
          "duration": 0.31666666666667
        },
        {
          "name": "E4",
          "midi": 64,
          "time": 32.458333333333336,
          "velocity": 0.6299212598425197,
          "duration": 0.31458333333333144
        },
        {
          "name": "E4",
          "midi": 64,
          "time": 33.083333333333336,
          "velocity": 0.6299212598425197,
          "duration": 0.3125
        },
        {
          "name": "E4",
          "midi": 64,
          "time": 33.708333333333336,
          "velocity": 0.6299212598425197,
          "duration": 0.3125
        },
        {
          "name": "E4",
          "midi": 64,
          "time": 34.333333333333336,
          "velocity": 0.6299212598425197,
          "duration": 0.31666666666667
        },
        {
          "name": "F4",
          "midi": 65,
          "time": 35.020833333333336,
          "velocity": 0.6299212598425197,
          "duration": 0.31458333333333144
        },
        {
          "name": "F4",
          "midi": 65,
          "time": 35.67395833333333,
          "velocity": 0.6299212598425197,
          "duration": 0.3125
        },
        {
          "name": "F4",
          "midi": 65,
          "time": 36.3,
          "velocity": 0.6299212598425197,
          "duration": 0.3125
        },
        {
          "name": "F4",
          "midi": 65,
          "time": 36.916666666666664,
          "velocity": 0.6299212598425197,
          "duration": 0.31666666666667
        },
        {
          "name": "E4",
          "midi": 64,
          "time": 38,
          "velocity": 0.6299212598425197,
          "duration": 0.31666666666667
        },
        {
          "name": "E4",
          "midi": 64,
          "time": 38.625,
          "velocity": 0.6299212598425197,
          "duration": 0.31666666666667
        },
        {
          "name": "E4",
          "midi": 64,
          "time": 39.295833333333334,
          "velocity": 0.6299212598425197,
          "duration": 0.31666666666667
        },
        {
          "name": "E4",
          "midi": 64,
          "time": 39.87500000000001,
          "velocity": 0.6299212598425197,
          "duration": 0.31666666666667
        },
        {
          "name": "D4",
          "midi": 62,
          "time": 40.54166666666668,
          "velocity": 0.6299212598425197,
          "duration": 0.31666666666667
        },
        {
          "name": "D4",
          "midi": 62,
          "time": 41.16666666666668,
          "velocity": 0.6299212598425197,
          "duration": 0.31666666666667
        },
        {
          "name": "D4",
          "midi": 62,
          "time": 41.83750000000001,
          "velocity": 0.6299212598425197,
          "duration": 0.31666666666667
        },
        {
          "name": "D4",
          "midi": 62,
          "time": 42.416666666666686,
          "velocity": 0.6299212598425197,
          "duration": 0.31666666666667
        },
        {
          "name": "F4",
          "midi": 65,
          "time": 43.50000000000002,
          "velocity": 0.6299212598425197,
          "duration": 1.5
        },
        {
          "name": "C4",
          "midi": 60,
          "time": 44.12500000000002,
          "velocity": 0.6299212598425197,
          "duration": 0.28437499999999716
        },
        {
          "name": "D4",
          "midi": 62,
          "time": 44.40729166666669,
          "velocity": 0.6299212598425197,
          "duration": 0.2916666666666643
        },
        {
          "name": "E4",
          "midi": 64,
          "time": 44.697916666666686,
          "velocity": 0.6299212598425197,
          "duration": 0.3020833333333357
        },
        {
          "name": "E4",
          "midi": 64,
          "time": 45.70833333333336,
          "velocity": 0.6299212598425197,
          "duration": 0.3031250000000014
        },
        {
          "name": "D4",
          "midi": 62,
          "time": 46.37500000000003,
          "velocity": 0.6299212598425197,
          "duration": 0.3031250000000014
        },
        {
          "name": "C4",
          "midi": 60,
          "time": 46.708333333333364,
          "velocity": 0.6299212598425197,
          "duration": 0.7291666666666643
        },
        {
          "name": "D4",
          "midi": 62,
          "time": 46.708333333333364,
          "velocity": 0.6299212598425197,
          "duration": 0.7291666666666643
        },
        {
          "name": "E4",
          "midi": 64,
          "time": 46.708333333333364,
          "velocity": 0.6299212598425197,
          "duration": 0.7291666666666643
        },
        {
          "name": "F4",
          "midi": 65,
          "time": 46.708333333333364,
          "velocity": 0.6299212598425197,
          "duration": 0.7291666666666643
        },
        {
          "name": "E4",
          "midi": 64,
          "time": 48.00000000000003,
          "velocity": 0.6299212598425197,
          "duration": 0.31666666666667
        },
        {
          "name": "E4",
          "midi": 64,
          "time": 48.50000000000003,
          "velocity": 0.6299212598425197,
          "duration": 0.31666666666667
        },
        {
          "name": "E4",
          "midi": 64,
          "time": 49.00000000000003,
          "velocity": 0.6299212598425197,
          "duration": 0.31666666666667
        },
        {
          "name": "E4",
          "midi": 64,
          "time": 49.50000000000003,
          "velocity": 0.6299212598425197,
          "duration": 0.31666666666667
        },
        {
          "name": "E4",
          "midi": 64,
          "time": 50.00000000000003,
          "velocity": 0.6299212598425197,
          "duration": 0.25
        },
        {
          "name": "D4",
          "midi": 62,
          "time": 50.62500000000003,
          "velocity": 0.6299212598425197,
          "duration": 0.31666666666667
        },
        {
          "name": "E4",
          "midi": 64,
          "time": 50.62500000000003,
          "velocity": 0.6299212598425197,
          "duration": 0.31666666666667
        },
        {
          "name": "D4",
          "midi": 62,
          "time": 51.12500000000003,
          "velocity": 0.6299212598425197,
          "duration": 0.31666666666667
        },
        {
          "name": "E4",
          "midi": 64,
          "time": 51.12500000000003,
          "velocity": 0.6299212598425197,
          "duration": 0.31666666666667
        },
        {
          "name": "D4",
          "midi": 62,
          "time": 51.62500000000003,
          "velocity": 0.6299212598425197,
          "duration": 0.31666666666667
        },
        {
          "name": "E4",
          "midi": 64,
          "time": 51.62500000000003,
          "velocity": 0.6299212598425197,
          "duration": 0.31666666666667
        },
        {
          "name": "D4",
          "midi": 62,
          "time": 52.12500000000003,
          "velocity": 0.6299212598425197,
          "duration": 0.31666666666667
        },
        {
          "name": "E4",
          "midi": 64,
          "time": 52.12500000000003,
          "velocity": 0.6299212598425197,
          "duration": 0.31666666666667
        },
        {
          "name": "D4",
          "midi": 62,
          "time": 52.62500000000003,
          "velocity": 0.6299212598425197,
          "duration": 0.31666666666667
        },
        {
          "name": "E4",
          "midi": 64,
          "time": 52.62500000000003,
          "velocity": 0.6299212598425197,
          "duration": 0.31666666666667
        },
        {
          "name": "C4",
          "midi": 60,
          "time": 53.18750000000003,
          "velocity": 0.6299212598425197,
          "duration": 0.31666666666667
        },
        {
          "name": "F4",
          "midi": 65,
          "time": 53.18750000000003,
          "velocity": 0.6299212598425197,
          "duration": 0.31666666666667
        },
        {
          "name": "C4",
          "midi": 60,
          "time": 53.68750000000003,
          "velocity": 0.6299212598425197,
          "duration": 0.31666666666667
        },
        {
          "name": "F4",
          "midi": 65,
          "time": 53.68750000000003,
          "velocity": 0.6299212598425197,
          "duration": 0.31666666666667
        },
        {
          "name": "C4",
          "midi": 60,
          "time": 54.18750000000003,
          "velocity": 0.6299212598425197,
          "duration": 0.31666666666667
        },
        {
          "name": "F4",
          "midi": 65,
          "time": 54.18750000000003,
          "velocity": 0.6299212598425197,
          "duration": 0.31666666666667
        },
        {
          "name": "C4",
          "midi": 60,
          "time": 54.68750000000003,
          "velocity": 0.6299212598425197,
          "duration": 0.31666666666667
        },
        {
          "name": "F4",
          "midi": 65,
          "time": 54.68750000000003,
          "velocity": 0.6299212598425197,
          "duration": 0.31666666666667
        },
        {
          "name": "C4",
          "midi": 60,
          "time": 55.18750000000003,
          "velocity": 0.6299212598425197,
          "duration": 0.31666666666667
        },
        {
          "name": "F4",
          "midi": 65,
          "time": 55.18750000000003,
          "velocity": 0.6299212598425197,
          "duration": 0.31666666666667
        },
        {
          "name": "C4",
          "midi": 60,
          "time": 55.87500000000003,
          "velocity": 0.6299212598425197,
          "duration": 0.31666666666667
        },
        {
          "name": "D4",
          "midi": 62,
          "time": 56.12500000000003,
          "velocity": 0.6299212598425197,
          "duration": 0.31666666666667
        },
        {
          "name": "E4",
          "midi": 64,
          "time": 56.43750000000003,
          "velocity": 0.6299212598425197,
          "duration": 0.31666666666667
        },
        {
          "name": "F4",
          "midi": 65,
          "time": 56.75000000000003,
          "velocity": 0.6299212598425197,
          "duration": 0.31666666666667
        },
        {
          "name": "F4",
          "midi": 65,
          "time": 57.06250000000003,
          "velocity": 0.6299212598425197,
          "duration": 0.31666666666667
        },
        {
          "name": "C4",
          "midi": 60,
          "time": 58.37500000000003,
          "velocity": 0.6299212598425197,
          "duration": 0.34375
        },
        {
          "name": "E4",
          "midi": 64,
          "time": 58.87500000000003,
          "velocity": 0.6299212598425197,
          "duration": 0.25
        },
        {
          "name": "E4",
          "midi": 64,
          "time": 59.12500000000003,
          "velocity": 0.6299212598425197,
          "duration": 0.25
        },
        {
          "name": "C4",
          "midi": 60,
          "time": 59.62500000000003,
          "velocity": 0.6299212598425197,
          "duration": 0.3500000000000014
        },
        {
          "name": "F4",
          "midi": 65,
          "time": 60.12500000000003,
          "velocity": 0.6299212598425197,
          "duration": 0.25
        },
        {
          "name": "F4",
          "midi": 65,
          "time": 60.37500000000003,
          "velocity": 0.6299212598425197,
          "duration": 0.25
        },
        {
          "name": "F4",
          "midi": 65,
          "time": 61.00000000000003,
          "velocity": 0.6299212598425197,
          "duration": 0.296875
        },
        {
          "name": "E4",
          "midi": 64,
          "time": 61.29687500000003,
          "velocity": 0.6299212598425197,
          "duration": 0.328125
        },
        {
          "name": "D4",
          "midi": 62,
          "time": 61.62500000000003,
          "velocity": 0.6299212598425197,
          "duration": 0.32500000000000284
        },
        {
          "name": "E4",
          "midi": 64,
          "time": 61.95000000000003,
          "velocity": 0.6299212598425197,
          "duration": 0.3218749999999986
        },
        {
          "name": "F4",
          "midi": 65,
          "time": 62.270833333333364,
          "velocity": 0.6299212598425197,
          "duration": 0.7291666666666643
        },
        {
          "name": "F4",
          "midi": 65,
          "time": 63.87500000000003,
          "velocity": 0.6299212598425197,
          "duration": 0.29895833333333144
        },
        {
          "name": "E4",
          "midi": 64,
          "time": 64.50000000000003,
          "velocity": 0.6299212598425197,
          "duration": 0.29895833333333144
        },
        {
          "name": "D4",
          "midi": 62,
          "time": 65.21875000000003,
          "velocity": 0.6299212598425197,
          "duration": 0.2979166666666657
        },
        {
          "name": "E4",
          "midi": 64,
          "time": 65.87500000000003,
          "velocity": 0.6299212598425197,
          "duration": 0.29895833333333144
        },
        {
          "name": "E4",
          "midi": 64,
          "time": 66.50000000000003,
          "velocity": 0.6299212598425197,
          "duration": 0.29895833333333144
        },
        {
          "name": "E4",
          "midi": 64,
          "time": 67.20833333333336,
          "velocity": 0.6299212598425197,
          "duration": 0.29895833333333144
        },
        {
          "name": "E4",
          "midi": 64,
          "time": 67.50000000000003,
          "velocity": 0.6299212598425197,
          "duration": 1.125
        },
        {
          "name": "C4",
          "midi": 60,
          "time": 68.75000000000003,
          "velocity": 0.6299212598425197,
          "duration": 0.3166666666666629
        },
        {
          "name": "E4",
          "midi": 64,
          "time": 69.25000000000003,
          "velocity": 0.6299212598425197,
          "duration": 0.1875
        },
        {
          "name": "E4",
          "midi": 64,
          "time": 69.43750000000003,
          "velocity": 0.6299212598425197,
          "duration": 0.25
        },
        {
          "name": "C4",
          "midi": 60,
          "time": 70.00000000000003,
          "velocity": 0.6299212598425197,
          "duration": 0.3218750000000057
        },
        {
          "name": "F4",
          "midi": 65,
          "time": 70.50000000000003,
          "velocity": 0.6299212598425197,
          "duration": 0.18437500000000284
        },
        {
          "name": "F4",
          "midi": 65,
          "time": 70.68333333333337,
          "velocity": 0.6299212598425197,
          "duration": 0.28958333333332575
        },
        {
          "name": "F4",
          "midi": 65,
          "time": 71.37500000000003,
          "velocity": 0.6299212598425197,
          "duration": 0.29895833333333144
        },
        {
          "name": "E4",
          "midi": 64,
          "time": 71.67187500000003,
          "velocity": 0.6299212598425197,
          "duration": 0.328125
        },
        {
          "name": "D4",
          "midi": 62,
          "time": 72.00000000000003,
          "velocity": 0.6299212598425197,
          "duration": 0.32500000000000284
        },
        {
          "name": "E4",
          "midi": 64,
          "time": 72.32500000000003,
          "velocity": 0.6299212598425197,
          "duration": 0.3218750000000057
        },
        {
          "name": "F4",
          "midi": 65,
          "time": 72.64583333333337,
          "velocity": 0.6299212598425197,
          "duration": 0.328125
        },
        {
          "name": "D4",
          "midi": 62,
          "time": 74.25000000000004,
          "velocity": 0.6299212598425197,
          "duration": 0.25
        },
        {
          "name": "E4",
          "midi": 64,
          "time": 74.82500000000005,
          "velocity": 0.6299212598425197,
          "duration": 0.25
        },
        {
          "name": "C4",
          "midi": 60,
          "time": 75.25000000000004,
          "velocity": 0.6299212598425197,
          "duration": 2.5
        },
        {
          "name": "D4",
          "midi": 62,
          "time": 75.62500000000004,
          "velocity": 0.6299212598425197,
          "duration": 2.125
        },
        {
          "name": "E4",
          "midi": 64,
          "time": 75.95104166666671,
          "velocity": 0.6299212598425197,
          "duration": 1.7989583333333314
        },
        {
          "name": "F4",
          "midi": 65,
          "time": 76.25000000000004,
          "velocity": 0.6299212598425197,
          "duration": 1.5
        },
        {
          "name": "E4",
          "midi": 64,
          "time": 79.12500000000004,
          "velocity": 0.6299212598425197,
          "duration": 0.5
        },
        {
          "name": "F4",
          "midi": 65,
          "time": 79.12500000000004,
          "velocity": 0.6299212598425197,
          "duration": 4.125
        },
        {
          "name": "D4",
          "midi": 62,
          "time": 79.62500000000004,
          "velocity": 0.6299212598425197,
          "duration": 0.5
        },
        {
          "name": "E4",
          "midi": 64,
          "time": "80.125",
          "velocity": 0.6299212598425197,
          "duration": "0.5"
        },
        {
          "name": "C4",
          "midi": 60,
          "time": "81.75",
          "velocity": 0.6299212598425197,
          "duration": "0.5"
        },
        {
          "name": "D4",
          "midi": 62,
          "time": "82.25",
          "velocity": 0.6299212598425197,
          "duration":"0.5"
        },
        {
          "name": "E4",
          "midi": 64,
          "time": "82.75",
          "velocity": 0.6299212598425197,
          "duration": "0.5"
        },
        {
          "name": "C4",
          "midi": 60,
          "time": "84.25",
          "velocity": 0.6299212598425197,
          "duration": "0.5"
        },
        {
          "name": "F4",
          "midi": 65,
          "time": "84.25",
          "velocity": 0.6299212598425197,
          "duration": "4.125"
        },
        {
          "name": "E4",
          "midi": 64,
          "time": "84.75",
          "velocity": 0.6299212598425197,
          "duration": "0.5"
        },
        {
          "name": "C4",
          "midi": 60,
          "time": "85.25",
          "velocity": 0.6299212598425197,
          "duration": "0.5"
        },
        {
          "name": "C#4",
          "midi": 61,
          "time": "86.875",
          "velocity": 0.6299212598425197,
          "duration": "0.5"
        },
        {
          "name": "D#4",
          "midi": 63,
          "time": "87.375",
          "velocity": 0.6299212598425197,
          "duration": "0.5"
        },
        {
          "name": "E4",
          "midi": 64,
          "time": "87.875",
          "velocity": 0.6299212598425197,
          "duration": "0.5"
        },
        {
          "name": "F4",
          "midi": 65,
          "time": "89.5",
          "velocity": 0.6299212598425197,
          "duration": "0.5"
        },
        {
          "name": "E4",
          "midi": 64,
          "time": "90",
          "velocity": 0.6299212598425197,
          "duration": "0.5"
        },
        {
          "name": "F4",
          "midi": 65,
          "time": "90.5",
          "velocity": 0.6299212598425197,
          "duration": "0.5"
        },
        {
          "name": "D4",
          "midi": 62,
          "time": "92.125",
          "velocity": 0.6299212598425197,
          "duration": "0.5"
        },
        {
          "name": "E4",
          "midi": 64,
          "time": "92.625",
          "velocity": 0.6299212598425197,
          "duration": "0.5"
        },
        {
          "name": "F4",
          "midi": 65,
          "time": "93.125",
          "velocity": 0.6299212598425197,
          "duration": "0.5"
        },
        {
          "name": "C4",
          "midi": 60,
          "time": "94.625",
          "velocity": 0.6299212598425197,
          "duration": "0.5"
        },
        {
          "name": "F4",
          "midi": 65,
          "time": "95.125",
          "velocity": 0.6299212598425197,
          "duration": "0.5"
        },
        {
          "name": "C4",
          "midi": 60,
          "time": "95.625",
          "velocity": 0.6299212598425197,
          "duration": "0.5"
        },
        {
          "name": "D4",
          "midi": 62,
          "time": "97.25",
          "velocity": 0.6299212598425197,
          "duration": "0.5"
        },
        {
          "name": "E4",
          "midi": 64,
          "time": "97.75",
          "velocity": 0.6299212598425197,
          "duration": "0.5"
        },
        {
          "name": "F4",
          "midi": 65,
          "time": "98.25",
          "velocity": 0.6299212598425197,
          "duration": "0.5"
        },
        {
          "name": "C4",
          "midi": 60,
          "time": "100.1875",
          "velocity": 0.6299212598425197,
          "duration": "0.1875"
        },
        {
          "name": "C4",
          "midi": 60,
          "time": 100.81250000000004,
          "velocity": 0.6299212598425197,
          "duration": "0.1875"
        },
        {
          "name": "C4",
          "midi": 60,
          "time": 101.50000000000004,
          "velocity": 0.6299212598425197,
          "duration": "0.1875"
        },
        {
          "name": "C4",
          "midi": 60,
          "time": 102.19791666666671,
          "velocity": 0.6299212598425197,
          "duration": "0.1875"
        },
        {
          "name": "C4",
          "midi": 60,
          "time": 102.79166666666671,
          "velocity": 0.6299212598425197,
          "duration": "0.1875"
        },
        {
          "name": "C4",
          "midi": 60,
          "time": 103.41666666666671,
          "velocity": 0.6299212598425197,
          "duration": "0.1875"
        },
        {
          "name": "C4",
          "midi": 60,
          "time": 104.10416666666671,
          "velocity": 0.6299212598425197,
          "duration": "0.1875"
        },
        {
          "name": "D4",
          "midi": 62,
          "time": 104.40520833333338,
          "velocity": 0.6299212598425197,
          "duration": "0.1875"
        },
        {
          "name": "E4",
          "midi": 64,
          "time": 104.59270833333338,
          "velocity": 0.6299212598425197,
          "duration": "0.1875"
        },
        {
          "name": "D4",
          "midi": 62,
          "time": 104.78020833333338,
          "velocity": 0.6299212598425197,
          "duration": "0.1875"
        },
        {
          "name": "E4",
          "midi": 64,
          "time": 104.96458333333338,
          "velocity": 0.6299212598425197,
          "duration": "0.1875"
        }
      ]
}