{
      "notes": [
        {
          "name": "D4",
          "midi": 62,
          "time": "0",
          "velocity": 0.6299212598425197,
          "duration": "0.3125"
        },
        {
          "name": "D4",
          "midi": 62,
          "time": "0.3125",
          "velocity": 0.6299212598425197,
          "duration": "0.3125"
        },
        {
          "name": "D4",
          "midi": 62,
          "time": "0.625",
          "velocity": 0.6299212598425197,
          "duration": "0.3125"
        },
        {
          "name": "D4",
          "midi": 62,
          "time": "0.9375",
          "velocity": 0.6299212598425197,
          "duration": "0.3125"
        },
        {
          "name": "C4",
          "midi": 60,
          "time": "1.25",
          "velocity": 0.6299212598425197,
          "duration": "1.375"
        },
        {
          "name": "D4",
          "midi": 62,
          "time": "2.625",
          "velocity": 0.6299212598425197,
          "duration":"1.375"
        },
        {
          "name": "E4",
          "midi": 64,
          "time": "4",
          "velocity": 0.6299212598425197,
          "duration": "1.375"
        },
        {
          "name": "F4",
          "midi": 65,
          "time": "6.5",
          "velocity": 0.6299212598425197,
          "duration": "0.5"
        },
        {
          "name": "E4",
          "midi": 64,
          "time": "7",
          "velocity": 0.6299212598425197,
          "duration": "0.5"
        },
        {
          "name": "F4",
          "midi": 65,
          "time": "7.5",
          "velocity": 0.6299212598425197,
          "duration": "0.5"
        },
        {
          "name": "D4",
          "midi": 62,
          "time": "9.125",
          "velocity": 0.6299212598425197,
          "duration": "0.5"
        },
        {
          "name": "E4",
          "midi": 64,
          "time": "9.625",
          "velocity": 0.6299212598425197,
          "duration": "0.5"
        },
        {
          "name": "F4",
          "midi": 65,
          "time": "10.125",
          "velocity": 0.6299212598425197,
          "duration": "0.5"
        },
        {
          "name": "C4",
          "midi": 60,
          "time": "11.625",
          "velocity": 0.6299212598425197,
          "duration": "0.5"
        },
        {
          "name": "F4",
          "midi": 65,
          "time": "12.125",
          "velocity": 0.6299212598425197,
          "duration": "0.5"
        },
        {
          "name": "C4",
          "midi": 60,
          "time": "12.625",
          "velocity": 0.6299212598425197,
          "duration": "0.5"
        },
        {
          "name": "D4",
          "midi": 62,
          "time": "14.25",
          "velocity": 0.6299212598425197,
          "duration": "0.5"
        },
        {
          "name": "E4",
          "midi": 64,
          "time": "14.75",
          "velocity": 0.6299212598425197,
          "duration": "0.5"
        },
        {
          "name": "F4",
          "midi": 65,
          "time": "15.25",
          "velocity": 0.6299212598425197,
          "duration": "0.5"
        },
        {
          "name": "F4",
          "midi": 65,
          "time": "16.876041666666666",
          "velocity": 0.6299212598425197,
          "duration": "0.5"
        },
        {
          "name": "E4",
          "midi": 64,
          "time": "17.376041666666666",
          "velocity": 0.6299212598425197,
          "duration": "0.5"
        },
        {
          "name": "F4",
          "midi": 65,
          "time": "17.876041666666666",
          "velocity": 0.6299212598425197,
          "duration": "0.5"
        },
        {
          "name": "D4",
          "midi": 62,
          "time":"19.5",
          "velocity": 0.6299212598425197,
          "duration": "0.5"
        },
        {
          "name": "E4",
          "midi": 64,
          "time": "20",
          "velocity": 0.6299212598425197,
          "duration": "0.5"
        },
        {
          "name": "F4",
          "midi": 65,
          "time": "20.5",
          "velocity": 0.6299212598425197,
          "duration": "0.5"
        },
        {
          "name": "C4",
          "midi": 60,
          "time": "22",
          "velocity": 0.6299212598425197,
          "duration": "0.5"
        },
        {
          "name": "F4",
          "midi": 65,
          "time": "22.5",
          "velocity": 0.6299212598425197,
          "duration": "0.5"
        },
        {
          "name": "C4",
          "midi": 60,
          "time": "23",
          "velocity": 0.6299212598425197,
          "duration": "0.5"
        },
        {
          "name": "D4",
          "midi": 62,
          "time": "24.626041666666666",
          "velocity": 0.6299212598425197,
          "duration": "0.5"
        },
        {
          "name": "E4",
          "midi": 64,
          "time": "25.126041666666666",
          "velocity": 0.6299212598425197,
          "duration": "0.5"
        },
        {
          "name": "F4",
          "midi": 65,
          "time": "25.626041666666666",
          "velocity": 0.6299212598425197,
          "duration": "0.5"
        },
        {
          "name": "E4",
          "midi": 64,
          "time": "27.25",
          "velocity": 0.6299212598425197,
          "duration": "0.3125"
        },
        {
          "name": "E4",
          "midi": 64,
          "time": "27.875",
          "velocity": 0.6299212598425197,
          "duration": "0.3125"
        },
        {
          "name": "E4",
          "midi": 64,
          "time": "28.5",
          "velocity": 0.6299212598425197,
          "duration": "0.3125"
        },
        {
          "name": "E4",
          "midi": 64,
          "time": "29.125",
          "velocity": 0.6299212598425197,
          "duration": "0.3125"
        },
        {
          "name": "D4",
          "midi": 62,
          "time": "29.8125",
          "velocity": 0.6299212598425197,
          "duration": "0.3125"
        },
        {
          "name": "D4",
          "midi": 62,
          "time": "30.4375",
          "velocity": 0.6299212598425197,
          "duration": "0.3125"
        },
        {
          "name": "D4",
          "midi": 62,
          "time": "31.0625",
          "velocity": 0.6299212598425197,
          "duration": "0.3125"
        },
        {
          "name": "D4",
          "midi": 62,
          "time": "31.6875",
          "velocity": 0.6299212598425197,
          "duration": "0.3125"
        },
        {
          "name": "E4",
          "midi": 64,
          "time": "38",
          "velocity": 0.6299212598425197,
          "duration": "0.3125"
        },
        {
          "name": "E4",
          "midi": 64,
          "time": "38.625",
          "velocity": 0.6299212598425197,
          "duration": "0.3125"
        },
        {
          "name": "E4",
          "midi": 64,
          "time": "39.295833333333334",
          "velocity": 0.6299212598425197,
          "duration": "0.3125"
        },
        {
          "name": "E4",
          "midi": 64,
          "time": "39.875",
          "velocity": 0.6299212598425197,
          "duration": "0.3125"
        },
        {
          "name": "D4",
          "midi": 62,
          "time": "40.54166666666668",
          "velocity": 0.6299212598425197,
          "duration": "0.3125"
        },
        {
          "name": "D4",
          "midi": 62,
          "time": "41.16666666666668",
          "velocity": 0.6299212598425197,
          "duration": "0.3125"
        },
        {
          "name": "D4",
          "midi": 62,
          "time": "41.8375",
          "velocity": 0.6299212598425197,
          "duration": "0.3125"
        },
        {
          "name": "D4",
          "midi": 62,
          "time": "42.416666666666686",
          "velocity": 0.6299212598425197,
          "duration": "0.3125"
        },
        {
          "name": "E4",
          "midi": 64,
          "time": "48",
          "velocity": 0.6299212598425197,
          "duration": "0.3125"
        },
        {
          "name": "E4",
          "midi": 64,
          "time": "48.5",
          "velocity": 0.6299212598425197,
          "duration": "0.3125"
        },
        {
          "name": "E4",
          "midi": 64,
          "time": "49",
          "velocity": 0.6299212598425197,
          "duration": "0.3125"
        },
        {
          "name": "E4",
          "midi": 64,
          "time": "49.5",
          "velocity": 0.6299212598425197,
          "duration": "0.3125"
        },
        {
          "name": "E4",
          "midi": 64,
          "time": "50",
          "velocity": 0.6299212598425197,
          "duration": "0.3125"
        },
        {
          "name": "E4",
          "midi": 64,
          "time": "50.375",
          "velocity": 0.6299212598425197,
          "duration": "0.3125"
        }
      ]
      
    }
  
