{
    "bpm": 120,
    "title": "",
     "notes": [
        {
          "name": "D4",
          "midi": 62,
          "time": "0",
          "velocity": 0.6299212598425197,
          "duration": 0.315625
        },
        {
          "name": "D4",
          "midi": 62,
          "time": "0.3125",
          "velocity": 0.6299212598425197,
          "duration": 0.3125
        },
        {
          "name": "D4",
          "midi": 62,
          "time": "0.625",
          "velocity": 0.6299212598425197,
          "duration": 0.30729166666666663
        },
        {
          "name": "D4",
          "midi": 62,
          "time": "0.9302083333333333",
          "velocity": 0.6299212598425197,
          "duration": 0.3197916666666667
        },
        {
          "name": "C4",
          "midi": 60,
          "time": "1.25",
          "velocity": 0.6299212598425197,
          "duration": 1.375
        },
        {
          "name": "D4",
          "midi": 62,
          "time": "2.625",
          "velocity": 0.6299212598425197,
          "duration": 1.375
        },
        {
          "name": "E4",
          "midi": 64,
          "time": "4",
          "velocity": 0.6299212598425197,
          "duration": 1.375
        },
        {
          "name": "E4",
          "midi": 64,
          "time": "27.25",
          "velocity": 0.6299212598425197,
          "duration": 0.314583333333335
        },
        {
          "name": "E4",
          "midi": 64,
          "time": "27.5625",
          "velocity": 0.6299212598425197,
          "duration": 0.3125
        },
        {
          "name": "E4",
          "midi": 64,
          "time": "27.875",
          "velocity": 0.6299212598425197,
          "duration": 0.3125
        },
        {
          "name": "E4",
          "midi": 64,
          "time": "28.1875",
          "velocity": 0.6299212598425197,
          "duration": 0.3125
        },
        {
          "name": "E4",
          "midi": 64,
          "time": "28.5",
          "velocity": 0.6299212598425197,
          "duration": 0.3125
        },
        {
          "name": "E4",
          "midi": 64,
          "time": "28.8125",
          "velocity": 0.6299212598425197,
          "duration": 0.3125
        },
        {
          "name": "E4",
          "midi": 64,
          "time": "29.125",
          "velocity": 0.6299212598425197,
          "duration": 0.31666666666666643
        },
        {
          "name": "E4",
          "midi": 64,
          "time": "29.4375",
          "velocity": 0.6299212598425197,
          "duration": 0.3125
        },
        {
          "name": "D4",
          "midi": 62,
          "time": "29.875",
          "velocity": 0.6299212598425197,
          "duration": 0.314583333333335
        },
        {
          "name": "D4",
          "midi": 62,
          "time": "30.1875",
          "velocity": 0.6299212598425197,
          "duration": 0.3125
        },
        {
          "name": "D4",
          "midi": 62,
          "time": "30.5",
          "velocity": 0.6299212598425197,
          "duration": 0.3125
        },
        {
          "name": "D4",
          "midi": 62,
          "time": "30.8125",
          "velocity": 0.6299212598425197,
          "duration": 0.3125
        },
        {
          "name": "D4",
          "midi": 62,
          "time": "31.125",
          "velocity": 0.6299212598425197,
          "duration": 0.3125
        },
        {
          "name": "D4",
          "midi": 62,
          "time": "31.4375",
          "velocity": 0.6299212598425197,
          "duration": 0.3125
        },
        {
          "name": "D4",
          "midi": 62,
          "time": "31.75",
          "velocity": 0.6299212598425197,
          "duration": 0.31666666666667
      },
      {
        "name": "D4",
        "midi": 62,
        "time": "32.0625",
        "velocity": 0.6299212598425197,
        "duration": 0.3125
      }
  ]
     
}